HIERARCHY
ROOT Hips
{
	OFFSET 0.000000 0.000000 0.000000
	CHANNELS 6 Xposition Yposition Zposition Zrotation Yrotation Xrotation 
	JOINT LHipJoint
	{
		OFFSET 0.000000 0.000000 0.000000
		CHANNELS 3 Zrotation Yrotation Xrotation
		JOINT LeftUpLeg
		{
			OFFSET 1.363060 -1.794630 0.839290
			CHANNELS 3 Zrotation Yrotation Xrotation
			JOINT LeftLeg
			{
				OFFSET 2.448110 -6.726130 0.000000
				CHANNELS 3 Zrotation Yrotation Xrotation
				JOINT LeftFoot
				{
					OFFSET 2.562200 -7.039590 0.000000
					CHANNELS 3 Zrotation Yrotation Xrotation
					JOINT LeftToeBase
					{
						OFFSET 0.157640 -0.433110 2.322550
						CHANNELS 3 Zrotation Yrotation Xrotation
						End Site
						{
							OFFSET 0.000000 0.000000 0.000000
						}
					}
				}
			}
		}
	}
	JOINT RHipJoint
	{
		OFFSET 0.000000 0.000000 0.000000
		CHANNELS 3 Zrotation Yrotation Xrotation
		JOINT RightUpLeg
		{
			OFFSET -1.305520 -1.794630 0.839290
			CHANNELS 3 Zrotation Yrotation Xrotation
			JOINT RightLeg
			{
				OFFSET -2.542530 -6.985550 0.000000
				CHANNELS 3 Zrotation Yrotation Xrotation
				JOINT RightFoot
				{
					OFFSET -2.568260 -7.056230 0.000000
					CHANNELS 3 Zrotation Yrotation Xrotation
					JOINT RightToeBase
					{
						OFFSET -0.164730 -0.452590 2.363150
						CHANNELS 3 Zrotation Yrotation Xrotation
						End Site
						{
							OFFSET 0.000000 0.000000 0.000000
						}
					}
				}
			}
		}
	}
	JOINT LowerBack
	{
		OFFSET 0.000000 0.000000 0.000000
		CHANNELS 3 Zrotation Yrotation Xrotation
		JOINT Spine
		{
			OFFSET 0.028270 2.035590 -0.193380
			CHANNELS 3 Zrotation Yrotation Xrotation
			JOINT Spine1
			{
				OFFSET 0.056720 2.048850 -0.042750
				CHANNELS 3 Zrotation Yrotation Xrotation
				JOINT Neck
				{
					OFFSET 0.000000 0.000000 0.000000
					CHANNELS 3 Zrotation Yrotation Xrotation
					JOINT Neck1
					{
						OFFSET -0.054170 1.746240 0.172020
						CHANNELS 3 Zrotation Yrotation Xrotation
						JOINT Head
						{
							OFFSET 0.104070 1.761360 -0.123970
							CHANNELS 3 Zrotation Yrotation Xrotation
							End Site
							{
								OFFSET 0.000000 0.000000 0.000000
							}
						}
					}
				}
				JOINT LeftShoulder
				{
					OFFSET 0.000000 0.000000 0.000000
					CHANNELS 3 Zrotation Yrotation Xrotation
					JOINT LeftArm
					{
						OFFSET 3.362410 1.200890 -0.311210
						CHANNELS 3 Zrotation Yrotation Xrotation
						JOINT LeftForeArm
						{
							OFFSET 4.983000 -0.000000 -0.000000
							CHANNELS 3 Zrotation Yrotation Xrotation
							JOINT LeftHand
							{
								OFFSET 3.483560 -0.000000 -0.000000
								CHANNELS 3 Zrotation Yrotation Xrotation
								JOINT LeftFingerBase
								{
									OFFSET 0.000000 0.000000 0.000000
									CHANNELS 3 Zrotation Yrotation Xrotation
									JOINT LeftHandIndex1
									{
										OFFSET 0.715260 -0.000000 -0.000000
										CHANNELS 3 Zrotation Yrotation Xrotation
										End Site
										{
											OFFSET 0.000000 0.000000 0.000000
										}
									}
								}
								JOINT LThumb
								{
									OFFSET 0.000000 0.000000 0.000000
									CHANNELS 3 Zrotation Yrotation Xrotation
									End Site
									{
										OFFSET 0.000000 0.000000 0.000000
									}
								}
							}
						}
					}
				}
				JOINT RightShoulder
				{
					OFFSET 0.000000 0.000000 0.000000
					CHANNELS 3 Zrotation Yrotation Xrotation
					JOINT RightArm
					{
						OFFSET -3.136600 1.374050 -0.404650
						CHANNELS 3 Zrotation Yrotation Xrotation
						JOINT RightForeArm
						{
							OFFSET -5.241900 -0.000000 -0.000000
							CHANNELS 3 Zrotation Yrotation Xrotation
							JOINT RightHand
							{
								OFFSET -3.444170 -0.000000 -0.000000
								CHANNELS 3 Zrotation Yrotation Xrotation
								JOINT RightFingerBase
								{
									OFFSET 0.000000 0.000000 0.000000
									CHANNELS 3 Zrotation Yrotation Xrotation
									JOINT RightHandIndex1
									{
										OFFSET -0.622530 -0.000000 -0.000000
										CHANNELS 3 Zrotation Yrotation Xrotation
										End Site
										{
											OFFSET 0.000000 0.000000 0.000000
										}
									}
								}
								JOINT RThumb
								{
									OFFSET 0.000000 0.000000 0.000000
									CHANNELS 3 Zrotation Yrotation Xrotation
									End Site
									{
										OFFSET 0.000000 0.000000 0.000000
									}
								}
							}
						}
					}
				}
			}
		}
	}
}
MOTION
Frames: 6
Frame Time: 0.008333
0.747584 17.861506 -17.116505 2.961383 1.650238 2.453579 -3.061408 6.319551 7.107162 -20.347868 -6.919023 2.313015 -1.149447 3.604846 17.646406 1.305033 -3.067721 -1.710652 0.562715 -4.799392 -13.338279 3.677913 -3.562492 1.412821 7.767379 14.078300 -28.079382 2.065332 -1.018502 3.915779 4.460578 -15.983888 10.639268 -0.411793 4.113254 -11.396496 -5.740341 -2.652833 3.764026 3.671098 -3.566162 2.503361 5.576394 -1.993667 -6.290811 -5.619545 -3.340176 -13.970608 2.710350 -3.530751 16.678868 -0.197328 -1.539649 8.673774 -7.029800 2.129724 -1.125024 -70.748333 2.459778 32.187054 21.102399 -32.903999 -6.852978 -0.439860 -1.187629 -4.983125 25.713320 28.083576 13.536164 -7.125000 0.000000 0.000000 -5.575872 61.834587 -2.290093 11.316343 -2.053511 -3.023823 71.599975 -6.929028 21.504422 -13.673302 27.530078 -4.329906 0.860227 -0.044737 0.480728 -12.988882 15.686438 -3.808969 7.125000 0.000000 0.000000 9.278674 -14.014560 6.847435
0.737413 17.854673 -17.028197 2.859858 1.708980 2.492579 -3.047113 6.355416 7.133770 -20.186885 -6.982525 2.532271 -1.143029 3.621671 17.680405 1.304959 -3.068882 -1.668205 0.625144 -5.054775 -14.065838 3.702608 -3.597816 1.432788 7.858084 14.033933 -27.873053 2.112622 -0.785386 3.332064 4.503531 -16.036264 10.364081 -0.464779 4.367361 -12.113489 -5.670940 -2.662377 3.833112 3.721382 -3.576071 2.511647 5.583593 -1.998685 -6.337183 -5.548250 -3.374045 -14.169417 2.699270 -3.568769 16.736153 -0.217185 -1.551747 8.724922 -7.032841 2.135603 -1.124597 -70.725572 2.301788 32.215742 21.083696 -32.879163 -6.843045 -0.440518 -1.176187 -5.137351 25.741154 27.608383 13.354491 -7.125000 0.000000 0.000000 -5.287615 61.335561 -2.108880 11.314273 -2.048447 -3.021604 71.651981 -6.955231 21.322909 -13.638206 27.481737 -4.319291 0.853868 -0.006782 0.400323 -13.025039 14.983948 -3.642508 7.125000 0.000000 0.000000 9.256622 -14.757279 6.682505
0.728075 17.845590 -16.938388 2.819053 1.791598 2.535699 -3.026035 6.383993 7.160246 -20.105817 -7.090869 2.797929 -1.137449 3.630258 17.706489 1.301347 -3.070156 -1.618615 0.672716 -5.243440 -14.604566 3.699800 -3.608748 1.430404 7.903282 14.012251 -27.857002 2.124586 -0.728874 3.184620 4.553647 -16.116585 10.127902 -0.507215 4.563172 -12.667138 -5.632361 -2.682274 3.884330 3.739504 -3.600437 2.508474 5.583035 -2.012481 -6.375832 -5.473606 -3.399834 -14.341130 2.674115 -3.598165 16.779854 -0.241074 -1.561553 8.767316 -7.035246 2.138424 -1.124257 -70.694018 2.183737 32.252521 21.073961 -32.868510 -6.836148 -0.438165 -1.185114 -5.237851 25.745693 27.887687 13.473215 -7.125000 0.000000 0.000000 -5.440895 61.633533 -2.215360 11.310765 -2.047000 -3.023408 71.704771 -7.028508 21.185123 -13.637400 27.484012 -4.324754 0.847417 0.008265 0.384852 -12.954335 14.689969 -3.549144 7.125000 0.000000 0.000000 9.307944 -15.074009 6.656894
0.719445 17.834597 -16.847307 2.829769 1.894474 2.582315 -2.999203 6.406387 7.186612 -20.092557 -7.237261 3.102959 -1.132579 3.631855 17.725857 1.294734 -3.071525 -1.562964 0.707683 -5.375496 -14.983072 3.673658 -3.598984 1.409056 7.909867 14.009817 -28.002399 2.106577 -0.822207 3.407346 4.609842 -16.220617 9.924820 -0.540702 4.709521 -13.082193 -5.619934 -2.710955 3.920389 3.730338 -3.637067 2.495578 5.575895 -2.033725 -6.407928 -5.396122 -3.418767 -14.489851 2.637018 -3.620246 16.812030 -0.268384 -1.569414 8.802283 -7.037112 2.138649 -1.123990 -70.655004 2.099573 32.296166 21.071835 -32.869892 -6.831826 -0.433256 -1.211323 -5.292765 25.730466 28.807171 13.846821 -7.125000 0.000000 0.000000 -5.968813 62.607747 -2.565944 11.306036 -2.048623 -3.028625 71.758225 -7.141727 21.084441 -13.665687 27.529234 -4.343859 0.840887 0.003876 0.424479 -12.792963 14.742605 -3.517802 7.125000 0.000000 0.000000 9.421521 -15.029293 6.749491
0.711203 17.827250 -16.754491 2.832420 2.001635 2.621040 -2.967788 6.427845 7.217444 -20.057801 -7.355360 3.400276 -1.130442 3.624922 17.727426 1.331188 -3.232600 -1.449525 0.722656 -5.432037 -15.145103 3.634651 -3.577291 1.375144 7.934848 14.028353 -28.255110 2.060866 -1.044441 3.954758 4.669042 -16.358909 9.834134 -0.580010 4.873754 -13.549414 -5.591113 -2.737560 3.894345 3.720577 -3.665361 2.509687 5.554931 -2.054460 -6.378662 -5.346787 -3.441956 -14.572335 2.618121 -3.652770 16.781974 -0.286692 -1.583840 8.806116 -7.037945 2.134342 -1.123334 -70.626196 1.981916 32.345724 21.047777 -32.843040 -6.816848 -0.433056 -1.219916 -5.263217 25.730898 29.119460 13.977600 -7.125000 0.000000 0.000000 -6.137899 62.940524 -2.679258 11.302907 -2.052713 -3.032097 71.851248 -7.196708 20.855279 -13.664378 27.528276 -4.347617 0.833785 -0.000887 0.548374 -12.641393 14.755501 -3.479449 7.125000 0.000000 0.000000 9.528860 -15.024681 6.829463
0.703240 17.822524 -16.660430 2.829278 2.111876 2.654096 -2.933080 6.448631 7.251483 -20.007605 -7.453136 3.692053 -1.130269 3.611864 17.716211 1.398578 -3.508393 -1.294577 0.723269 -5.434334 -15.151636 3.586405 -3.547029 1.332207 7.973043 14.061952 -28.584906 1.995255 -1.359266 4.735395 4.730402 -16.521812 9.824185 -0.623502 5.050833 -14.054106 -5.550517 -2.762675 3.823692 3.710389 -3.687666 2.543193 5.524037 -2.074828 -6.305319 -5.317673 -3.468200 -14.607241 2.612298 -3.692796 16.707217 -0.298535 -1.602982 8.787587 -7.038037 2.126780 -1.122399 -70.604719 1.840199 32.399530 21.007965 -32.795908 -6.794216 -0.436238 -1.215855 -5.173000 25.742578 28.995597 13.933956 -7.125000 0.000000 0.000000 -6.049232 62.812552 -2.622137 11.300928 -2.058577 -3.034316 71.972695 -7.209856 20.533830 -13.641809 27.494146 -4.340350 0.826271 -0.005917 0.732801 -12.496864 14.739850 -3.436060 7.125000 0.000000 0.000000 9.631718 -15.048877 6.900366
